<svg xmlns="http://www.w3.org/2000/svg" width="120" height="120" viewBox="0 0 120 120">
  <defs>
    <linearGradient id="wizardRobeGradient" x1="0%" y1="0%" x2="100%" y2="100%">
      <stop offset="0%" stop-color="#3949AB" />
      <stop offset="100%" stop-color="#1A237E" />
    </linearGradient>
    <linearGradient id="wizardHatGradient" x1="0%" y1="0%" x2="100%" y2="100%">
      <stop offset="0%" stop-color="#5C6BC0" />
      <stop offset="100%" stop-color="#3F51B5" />
    </linearGradient>
    <linearGradient id="starGradient" x1="0%" y1="0%" x2="100%" y2="100%">
      <stop offset="0%" stop-color="#FFEB3B" />
      <stop offset="100%" stop-color="#FFC107" />
    </linearGradient>
  </defs>
  <circle cx="60" cy="60" r="56" fill="#F3E5F5" stroke="#D1C4E9" stroke-width="2" />
  <circle cx="60" cy="58" r="30" fill="#E8EAF6" />
  
  <!-- Wizard Robe -->
  <path d="M35 65C35 45 45 40 60 40C75 40 85 45 85 65V70C85 85 75 95 60 95C45 95 35 85 35 70V65Z" fill="url(#wizardRobeGradient)" />
  
  <!-- Wizard Face -->
  <circle cx="60" cy="60" r="12" fill="#FFE0B2" />
  
  <!-- Wizard Hat -->
  <path d="M40 45L60 15L80 45H40Z" fill="url(#wizardHatGradient)" />
  
  <!-- Hat Band -->
  <path d="M40 45H80" stroke="#E1BEE7" stroke-width="3" />
  
  <!-- Wizard Beard -->
  <path d="M50 65C55 75 65 75 70 65V75C65 80 55 80 50 75V65Z" fill="#ECEFF1" />
  
  <!-- Wizard Eyes -->
  <circle cx="55" cy="56" r="2" fill="#5D4037" />
  <circle cx="65" cy="56" r="2" fill="#5D4037" />
  
  <!-- Wizard Eyebrows -->
  <path d="M52 53C53 52 57 52 58 53" stroke="#5D4037" stroke-width="1" />
  <path d="M62 53C63 52 67 52 68 53" stroke="#5D4037" stroke-width="1" />
  
  <!-- Wizard Staff -->
  <line x1="30" y1="90" x2="45" y2="65" stroke="#795548" stroke-width="2" />
  <circle cx="28" cy="85" r="4" fill="url(#starGradient)" />
  
  <!-- Magic Stars -->
  <circle cx="25" cy="80" r="1" fill="#FFEB3B" />
  <circle cx="28" cy="75" r="1" fill="#FFEB3B" />
  <circle cx="22" cy="77" r="1" fill="#FFEB3B" />
  <circle cx="26" cy="73" r="1" fill="#FFEB3B" />
  <circle cx="20" cy="82" r="1" fill="#FFEB3B" />
  
  <!-- Hat Stars -->
  <circle cx="50" cy="30" r="1" fill="#FFEB3B" />
  <circle cx="60" cy="20" r="1" fill="#FFEB3B" />
  <circle cx="70" cy="30" r="1" fill="#FFEB3B" />
</svg>