<svg xmlns="http://www.w3.org/2000/svg" width="120" height="120" viewBox="0 0 120 120">
  <defs>
    <linearGradient id="kittyGradient" x1="0%" y1="0%" x2="100%" y2="100%">
      <stop offset="0%" stop-color="#FFCC80" />
      <stop offset="100%" stop-color="#FF8A65" />
    </linearGradient>
  </defs>
  <circle cx="60" cy="60" r="56" fill="#FFF3E0" stroke="#FFE0B2" stroke-width="2" />
  <circle cx="60" cy="58" r="30" fill="#FFF8E1" />
  
  <!-- Kitty Face -->
  <circle cx="60" cy="60" r="20" fill="url(#kittyGradient)" />
  
  <!-- Ears -->
  <path d="M45 42L55 50L52 36Z" fill="url(#kittyGradient)" />
  <path d="M75 42L65 50L68 36Z" fill="url(#kittyGradient)" />
  
  <!-- Inner Ears -->
  <path d="M47 42L54 47L52 38Z" fill="#FFAB91" />
  <path d="M73 42L66 47L68 38Z" fill="#FFAB91" />
  
  <!-- Eyes -->
  <ellipse cx="52" cy="55" rx="3.5" ry="5" fill="#FFFFFF" />
  <ellipse cx="68" cy="55" rx="3.5" ry="5" fill="#FFFFFF" />
  
  <!-- Pupils -->
  <ellipse cx="52" cy="55" rx="1.5" ry="3" fill="#424242" />
  <ellipse cx="68" cy="55" rx="1.5" ry="3" fill="#424242" />
  
  <!-- Nose -->
  <path d="M58 63L60 65L62 63L60 62Z" fill="#F48FB1" />
  
  <!-- Mouth -->
  <path d="M53 68C56 71 64 71 67 68" stroke="#F48FB1" stroke-width="1" stroke-linecap="round" fill="none" />
  
  <!-- Whiskers -->
  <line x1="40" y1="62" x2="52" y2="63" stroke="#FFCC80" stroke-width="1" />
  <line x1="40" y1="65" x2="52" y2="65" stroke="#FFCC80" stroke-width="1" />
  <line x1="40" y1="68" x2="52" y2="67" stroke="#FFCC80" stroke-width="1" />
  
  <line x1="80" y1="62" x2="68" y2="63" stroke="#FFCC80" stroke-width="1" />
  <line x1="80" y1="65" x2="68" y2="65" stroke="#FFCC80" stroke-width="1" />
  <line x1="80" y1="68" x2="68" y2="67" stroke="#FFCC80" stroke-width="1" />
</svg>