<svg xmlns="http://www.w3.org/2000/svg" width="120" height="120" viewBox="0 0 120 120">
  <defs>
    <linearGradient id="alienGradient" x1="0%" y1="0%" x2="100%" y2="100%">
      <stop offset="0%" stop-color="#64FFDA" />
      <stop offset="100%" stop-color="#00BFA5" />
    </linearGradient>
    <linearGradient id="eyeGradient" x1="0%" y1="0%" x2="100%" y2="100%">
      <stop offset="0%" stop-color="#FFFF00" />
      <stop offset="100%" stop-color="#FFD600" />
    </linearGradient>
  </defs>
  <circle cx="60" cy="60" r="56" fill="#E0F2F1" stroke="#80CBC4" stroke-width="2" />
  <circle cx="60" cy="58" r="30" fill="#E8F5E9" />
  
  <!-- Alien Head -->
  <path d="M35 60C35 45 45 30 60 30C75 30 85 45 85 60C85 75 75 85 60 85C45 85 35 75 35 60Z" fill="url(#alienGradient)" />
  
  <!-- Alien Eyes -->
  <ellipse cx="50" cy="50" rx="8" ry="4" fill="#000000" />
  <ellipse cx="70" cy="50" rx="8" ry="4" fill="#000000" />
  
  <ellipse cx="50" cy="50" rx="4" ry="2" fill="url(#eyeGradient)" />
  <ellipse cx="70" cy="50" rx="4" ry="2" fill="url(#eyeGradient)" />
  
  <!-- Alien Mouth -->
  <path d="M50 70C55 75 65 75 70 70" stroke="#004D40" stroke-width="1.5" stroke-linecap="round" fill="none" />
  
  <!-- Alien Antennas -->
  <path d="M55 30C55 20 50 15 45 15" stroke="#004D40" stroke-width="1.5" fill="none" />
  <path d="M65 30C65 20 70 15 75 15" stroke="#004D40" stroke-width="1.5" fill="none" />
  
  <circle cx="45" cy="15" r="2" fill="#E91E63" />
  <circle cx="75" cy="15" r="2" fill="#E91E63" />
  
  <!-- Alien Patterns -->
  <circle cx="40" cy="40" r="1.5" fill="#004D40" />
  <circle cx="80" cy="40" r="1.5" fill="#004D40" />
  <circle cx="35" cy="65" r="1.5" fill="#004D40" />
  <circle cx="85" cy="65" r="1.5" fill="#004D40" />
  <circle cx="45" cy="80" r="1.5" fill="#004D40" />
  <circle cx="75" cy="80" r="1.5" fill="#004D40" />
</svg>