<svg xmlns="http://www.w3.org/2000/svg" width="120" height="120" viewBox="0 0 120 120">
  <defs>
    <linearGradient id="metalGradient" x1="0%" y1="0%" x2="100%" y2="100%">
      <stop offset="0%" stop-color="#B0BEC5" />
      <stop offset="100%" stop-color="#607D8B" />
    </linearGradient>
    <linearGradient id="screenGradient" x1="0%" y1="0%" x2="100%" y2="100%">
      <stop offset="0%" stop-color="#00E5FF" />
      <stop offset="100%" stop-color="#0091EA" />
    </linearGradient>
  </defs>
  <circle cx="60" cy="60" r="56" fill="#E0F7FA" stroke="#80DEEA" stroke-width="2" />
  <circle cx="60" cy="58" r="30" fill="#E0F2F1" />
  
  <!-- Robot Head -->
  <rect x="40" y="40" width="40" height="40" rx="6" fill="url(#metalGradient)" />
  
  <!-- Antenna -->
  <line x1="60" y1="25" x2="60" y2="40" stroke="#78909C" stroke-width="2" />
  <circle cx="60" cy="24" r="3" fill="#F44336" />
  
  <!-- Screen/Face -->
  <rect x="45" y="45" width="30" height="20" rx="2" fill="url(#screenGradient)" />
  
  <!-- Eyes -->
  <circle cx="52" cy="55" r="2.5" fill="#FFFFFF" />
  <circle cx="68" cy="55" r="2.5" fill="#FFFFFF" />
  
  <!-- Mouth/Speaker -->
  <rect x="50" y="65" width="20" height="5" rx="2" fill="#455A64" />
  <line x1="53" y1="67.5" x2="67" y2="67.5" stroke="#FFFFFF" stroke-width="1" />
  
  <!-- Buttons/Lights -->
  <circle cx="36" cy="50" r="2" fill="#F44336" />
  <circle cx="36" cy="60" r="2" fill="#4CAF50" />
  <circle cx="36" cy="70" r="2" fill="#FFEB3B" />
  
  <circle cx="84" cy="50" r="2" fill="#F44336" />
  <circle cx="84" cy="60" r="2" fill="#4CAF50" />
  <circle cx="84" cy="70" r="2" fill="#FFEB3B" />
  
  <!-- Neck/Body Connection -->
  <rect x="55" y="80" width="10" height="5" fill="#455A64" />
</svg>