<svg xmlns="http://www.w3.org/2000/svg" width="120" height="120" viewBox="0 0 120 120">
  <defs>
    <linearGradient id="ninjaGradient" x1="0%" y1="0%" x2="100%" y2="100%">
      <stop offset="0%" stop-color="#424242" />
      <stop offset="100%" stop-color="#212121" />
    </linearGradient>
    <linearGradient id="redBandGradient" x1="0%" y1="0%" x2="100%" y2="100%">
      <stop offset="0%" stop-color="#F44336" />
      <stop offset="100%" stop-color="#C62828" />
    </linearGradient>
  </defs>
  <circle cx="60" cy="60" r="56" fill="#ECEFF1" stroke="#CFD8DC" stroke-width="2" />
  <circle cx="60" cy="58" r="30" fill="#FAFAFA" />
  
  <!-- Ninja Head -->
  <circle cx="60" cy="60" r="22" fill="url(#ninjaGradient)" />
  
  <!-- Eye Opening in Mask -->
  <path d="M45 60H75" stroke="#121212" stroke-width="2" />
  
  <!-- Ninja Eyes -->
  <ellipse cx="50" cy="60" rx="3" ry="1.5" fill="#FFFFFF" />
  <ellipse cx="70" cy="60" rx="3" ry="1.5" fill="#FFFFFF" />
  
  <circle cx="50" cy="60" r="1.5" fill="#7B1FA2" />
  <circle cx="70" cy="60" r="1.5" fill="#7B1FA2" />
  
  <!-- Ninja Headband -->
  <path d="M40 50C40 40 50 35 60 35C70 35 80 40 80 50" stroke="url(#redBandGradient)" stroke-width="4" fill="none" />
  
  <!-- Headband Ties -->
  <path d="M80 50C85 52 90 60 85 65" stroke="url(#redBandGradient)" stroke-width="3" fill="none" />
  <path d="M80 50C87 55 88 62 85 70" stroke="url(#redBandGradient)" stroke-width="3" fill="none" />
  
  <!-- Ninja Star -->
  <path d="M35 35L38 38L35 41L32 38Z" fill="#E0E0E0" transform="rotate(45, 35, 38)" />
  
  <!-- Ninja Shadow Details -->
  <path d="M50 70C55 75 65 75 70 70" stroke="#000000" stroke-width="1" stroke-opacity="0.2" fill="none" />
  <path d="M45 45C55 50 65 50 75 45" stroke="#000000" stroke-width="1" stroke-opacity="0.2" fill="none" />
</svg>