<?xml version="1.0" encoding="UTF-8"?>
<svg width="200" height="200" viewBox="0 0 200 200" fill="none" xmlns="http://www.w3.org/2000/svg">
  <!-- Background Gradient -->
  <circle cx="100" cy="100" r="100" fill="url(#paint0_radial)" />
  
  <!-- Alien Head -->
  <path d="M100 170C60 170 40 130 40 100C40 60 70 30 100 30C130 30 160 60 160 100C160 130 140 170 100 170Z" fill="#68D391" />
  
  <!-- Large Eyes -->
  <ellipse cx="75" cy="85" rx="20" ry="25" fill="#1A202C" />
  <ellipse cx="125" cy="85" rx="20" ry="25" fill="#1A202C" />
  
  <!-- Eye Reflection -->
  <ellipse cx="70" cy="75" rx="8" ry="10" fill="#E2E8F0" />
  <ellipse cx="120" cy="75" rx="8" ry="10" fill="#E2E8F0" />
  
  <!-- Small Mouth -->
  <ellipse cx="100" cy="130" rx="10" ry="5" fill="#1A202C" />
  
  <!-- Antennae -->
  <line x1="85" y1="30" x2="75" y2="10" stroke="#1A202C" stroke-width="3" />
  <line x1="115" y1="30" x2="125" y2="10" stroke="#1A202C" stroke-width="3" />
  <circle cx="75" cy="5" r="5" fill="#FC8181" />
  <circle cx="125" cy="5" r="5" fill="#FC8181" />
  
  <!-- Spots -->
  <circle cx="60" cy="130" r="5" fill="#38A169" />
  <circle cx="140" cy="130" r="5" fill="#38A169" />
  <circle cx="50" cy="100" r="5" fill="#38A169" />
  <circle cx="150" cy="100" r="5" fill="#38A169" />
  
  <!-- Gradients -->
  <defs>
    <radialGradient id="paint0_radial" cx="0" cy="0" r="1" gradientUnits="userSpaceOnUse" gradientTransform="translate(100 100) rotate(90) scale(100)">
      <stop stop-color="#48BB78" />
      <stop offset="1" stop-color="#276749" />
    </radialGradient>
  </defs>
</svg>