<svg xmlns="http://www.w3.org/2000/svg" width="120" height="120" viewBox="0 0 120 120">
  <defs>
    <linearGradient id="orangeGradient" x1="0%" y1="0%" x2="100%" y2="100%">
      <stop offset="0%" stop-color="#FF9E00" />
      <stop offset="100%" stop-color="#FF6D00" />
    </linearGradient>
  </defs>
  <circle cx="60" cy="60" r="56" fill="#FFF8F0" stroke="#FFDAB9" stroke-width="2" />
  <circle cx="60" cy="58" r="30" fill="#FFF4EA" />
  
  <!-- Hair -->
  <path d="M32 45C32 38 40 30 60 30C80 30 88 38 88 45V60C88 77 75 90 60 90C45 90 32 77 32 60V45Z" fill="#6F4E37" />
  
  <!-- Face -->
  <circle cx="60" cy="60" r="20" fill="#FFE0BD" />
  
  <!-- Glasses -->
  <circle cx="50" cy="55" r="8" fill="none" stroke="url(#orangeGradient)" stroke-width="2" />
  <circle cx="70" cy="55" r="8" fill="none" stroke="url(#orangeGradient)" stroke-width="2" />
  <path d="M58 55H62" stroke="url(#orangeGradient)" stroke-width="2" />
  <path d="M42 55H44" stroke="url(#orangeGradient)" stroke-width="2" />
  <path d="M76 55H78" stroke="url(#orangeGradient)" stroke-width="2" />
  
  <!-- Eyes -->
  <circle cx="50" cy="55" r="2.5" fill="#36383A" />
  <circle cx="70" cy="55" r="2.5" fill="#36383A" />
  
  <!-- Eyebrows -->
  <path d="M45.5 47C47.5 45 53 45 54.5 47" stroke="#36383A" stroke-width="1.5" stroke-linecap="round" />
  <path d="M65.5 47C67.5 45 73 45 74.5 47" stroke="#36383A" stroke-width="1.5" stroke-linecap="round" />
  
  <!-- Mouth -->
  <path d="M53 68C55.5 70.5 64.5 70.5 67 68" stroke="#FF5C5C" stroke-width="1.5" stroke-linecap="round" />
  
  <!-- Blush -->
  <circle cx="45" cy="62" r="3" fill="#FFAFAF" opacity="0.5" />
  <circle cx="75" cy="62" r="3" fill="#FFAFAF" opacity="0.5" />
</svg>